PathFileType	4	(X/Y/Z)	./resultDataOpenSim/trcMotMarkerGrf/sub06/qtm-15-02.trc
DataRate	CameraRate	NumFrames	NumMarkers	Units	OrigDataRate	OrigDataStartFrame	OrigNumFrames
250.000000	250.000000	8	24	m	250.000000	274	547
Frame#	Time	L.Toe.Tip			R.Toe.Tip			L.Ankle.Lat			R.Ankle.Lat			L.Ankle.Med			R.Ankle.Med			L.Heel			R.Heel			L.Knee.Lat			R.Knee.Lat			L.Knee.Med			R.Knee.Med			L.Thigh.Upper			R.Thigh.Upper			L.ASIS			R.ASIS			V.Sacral			L.Acromium			R.Acromium			C7			L.Elbow			R.Elbow			L.Wrist.Lat			R.Wrist.Lat
		X1	Y1	Z1	X2	Y2	Z2	X3	Y3	Z3	X4	Y4	Z4	X5	Y5	Z5	X6	Y6	Z6	X7	Y7	Z7	X8	Y8	Z8	X9	Y9	Z9	X10	Y10	Z10	X11	Y11	Z11	X12	Y12	Z12	X13	Y13	Z13	X14	Y14	Z14	X15	Y15	Z15	X16	Y16	Z16	X17	Y17	Z17	X18	Y18	Z18	X19	Y19	Z19	X20	Y20	Z20	X21	Y21	Z21	X22	Y22	Z22	X23	Y23	Z23	X24	Y24	Z24

274	1.092	0.15057544	-0.064206539	-0.039615349	0.91464815	0.10644482	0.10633454	0.067767145	0.023792756	-0.086814767	0.77667959	0.093647366	0.12704589	0.069440318	0.041456665	-0.0012279551	0.79065537	0.12414652	0.042173281	-0.0093741844	0.03484236	-0.045501245	0.73458658	0.05760438	0.063904142	0.25696419	0.3496104	-0.093469366	0.68265334	0.47264423	0.14880066	0.24060752	0.35845826	0.028601514	0.65954439	0.44684259	0.02701036	0.36031462	0.71508045	-0.15467179	0.42915387	0.74493755	0.19206864	0.45166378	0.76058108	-0.12848053	0.50076858	0.7907436	0.1185123	0.29950032	0.85278679	0.025255556	0.5115754	1.2571292	-0.15392794	0.46592488	1.2327827	0.20320122	0.41169703	1.288911	0.013516566	0.55057905	0.93478721	-0.24229567	0.25872818	0.99957497	0.2506148	0.79929236	0.92089978	-0.19404695	0.24075867	0.77416603	0.32676115
275	1.096	0.15079466	-0.064193651	-0.039629856	0.92133651	0.10303362	0.10484981	0.069826623	0.025198418	-0.087182985	0.78326875	0.090820535	0.12534854	0.072072649	0.042693331	-0.0016581876	0.79736855	0.12137081	0.040567203	-0.0068622875	0.037511558	-0.045745979	0.74116695	0.054957473	0.062176986	0.26367583	0.34851823	-0.093823676	0.69079878	0.47035179	0.14740786	0.24783567	0.35732964	0.028420958	0.66737161	0.44458316	0.025539382	0.3671696	0.71401714	-0.15412355	0.43858571	0.74334625	0.19186738	0.45848339	0.75990513	-0.12863385	0.50959985	0.78997896	0.11816004	0.30704716	0.85156101	0.026359158	0.51909888	1.2563182	-0.15303862	0.47388905	1.2312866	0.2040083	0.41939798	1.2877669	0.014491681	0.55993441	0.93392879	-0.24190584	0.26575541	0.99891455	0.2507484	0.80873707	0.92332207	-0.19211712	0.2455852	0.77406557	0.32744805
276	1.1	0.15104911	-0.064163246	-0.039639779	0.92744332	0.099183415	0.10318428	0.071996855	0.026621707	-0.087552072	0.78929999	0.087688364	0.12368076	0.074878844	0.043952263	-0.0021412993	0.80347287	0.11822615	0.038987203	-0.0041694538	0.040228558	-0.046017643	0.74709606	0.052007986	0.060547549	0.27058322	0.34738289	-0.094246473	0.69884265	0.46789708	0.14596651	0.25525138	0.35610366	0.028242066	0.67515699	0.44239071	0.024079816	0.37410986	0.71295626	-0.15356603	0.44818824	0.74180183	0.19164679	0.46558391	0.75927638	-0.12867143	0.51852881	0.78916487	0.11774464	0.31456611	0.8503324	0.027522837	0.52656381	1.255514	-0.15212986	0.48188811	1.2297599	0.20483583	0.42707852	1.2865847	0.015517653	0.56917044	0.93322744	-0.24180812	0.27295582	0.99818537	0.25096823	0.81804577	0.92559844	-0.19019258	0.25062675	0.7738859	0.32811459
277	1.104	0.15134331	-0.064103536	-0.039629141	0.93301938	0.094911738	0.10132886	0.07436715	0.02802438	-0.087952604	0.79482661	0.084239503	0.12205587	0.077865872	0.045225251	-0.0026747624	0.80897772	0.1147178	0.037479973	-0.0012835615	0.042998102	-0.046317011	0.75242427	0.048709189	0.059045172	0.27769205	0.34619371	-0.094747679	0.70674145	0.46523248	0.14450714	0.26285553	0.35478835	0.028062582	0.68285957	0.44022784	0.022656673	0.38113424	0.71190023	-0.15300502	0.45791815	0.74030993	0.19139025	0.47307305	0.75868762	-0.12860777	0.52755627	0.78829301	0.11726751	0.32222361	0.84905769	0.028704246	0.53396094	1.2547199	-0.15120595	0.48992299	1.2282072	0.20568498	0.43467134	1.2853947	0.016641494	0.57846258	0.93261681	-0.2414822	0.28030849	0.99739926	0.25125703	0.82722844	0.92773449	-0.1882791	0.25586575	0.77362531	0.3287598
278	1.108	0.15167174	-0.064011953	-0.039593276	0.93809169	0.090256146	0.099266968	0.076971094	0.029391379	-0.088406414	0.79988692	0.080439419	0.12048422	0.081037424	0.04651504	-0.0032428545	0.81389712	0.11085492	0.036057812	0.0018065352	0.045830552	-0.046638557	0.75717388	0.045016534	0.057698338	0.28499994	0.3449387	-0.095336741	0.71446734	0.46233371	0.14305441	0.27066185	0.35340605	0.027828883	0.69041928	0.43805501	0.021274455	0.38824068	0.71084896	-0.15245183	0.46775745	0.7388818	0.19110358	0.48095388	0.75814398	-0.12844491	0.53666546	0.78735221	0.116717	0.33031303	0.84764143	0.029837154	0.54128792	1.2539344	-0.15027161	0.49799469	1.2266273	0.20655435	0.44213301	1.2842454	0.01792232	0.58773749	0.93201841	-0.24073885	0.2877586	0.9965662	0.25158562	0.83629083	0.92974962	-0.18637871	0.2612279	0.77327328	0.32937423
279	1.112	0.15202211	-0.063896006	-0.039544758	0.94267404	0.085234371	0.096971831	0.079778031	0.030734111	-0.088910999	0.80449592	0.07624539	0.11897367	0.084399322	0.047827267	-0.0038318448	0.8182677	0.10664087	0.034687257	0.0051186143	0.048734578	-0.046967167	0.76131729	0.040992224	0.056524201	0.29251381	0.34360426	-0.096015651	0.72200836	0.45918766	0.14162528	0.27869525	0.35199257	0.027430876	0.69775323	0.43584129	0.01990944	0.39542476	0.70980095	-0.1519185	0.47770157	0.73752003	0.19079868	0.48914621	0.75763679	-0.12819591	0.54585255	0.78633813	0.11608862	0.33909478	0.84598605	0.030871874	0.54854415	1.2531519	-0.14932476	0.50609721	1.2250142	0.20743432	0.44951689	1.2831312	0.019354537	0.59691967	0.9314143	-0.23972765	0.29525726	0.99568944	0.25193498	0.84523881	0.93165852	-0.184492	0.26668008	0.77281653	0.32995659
280	1.116	0.15238853	-0.063769727	-0.039500025	0.94684586	0.079742222	0.094418784	0.082745885	0.032064497	-0.089443634	0.80868471	0.07166991	0.1175298	0.087962883	0.049154135	-0.0044455633	0.8221717	0.10207394	0.033290511	0.0086735029	0.05171601	-0.047274396	0.76479069	0.036990228	0.055496406	0.30025154	0.34217261	-0.096783667	0.72935113	0.45577646	0.14023396	0.28697712	0.35056884	0.026776582	0.7047966	0.43355403	0.018540158	0.40267978	0.70874923	-0.15140707	0.48775015	0.73621079	0.19048142	0.49753371	0.757138	-0.12789108	0.55513563	0.78525782	0.11539743	0.34855067	0.84410065	0.031813859	0.55572812	1.2523704	-0.14835789	0.51422192	1.2233656	0.20831413	0.4569287	1.2819755	0.020846608	0.60598764	0.93081773	-0.23862904	0.30277365	0.99476941	0.25229866	0.85407893	0.93346059	-0.18262367	0.27225953	0.77225216	0.33051682
281	1.12	0.15277587	-0.063654105	-0.039472651	0.95088651	0.073439297	0.091626385	0.085849323	0.033374118	-0.089964815	0.81258944	0.066905351	0.11616058	0.091742676	0.050475613	-0.0050963388	0.82585501	0.097208722	0.031737842	0.012486343	0.054776543	-0.047531053	0.76764871	0.033734342	0.054505107	0.30822959	0.34062538	-0.097643631	0.7364569	0.45205343	0.13890625	0.29550532	0.34909484	0.025895178	0.71153328	0.43113055	0.017194922	0.41000088	0.70768571	-0.15091074	0.49790694	0.7349254	0.1901513	0.50599801	0.75661041	-0.12756902	0.56449636	0.78411393	0.11465526	0.35830392	0.84214262	0.032709808	0.56284092	1.2515907	-0.1473701	0.52236476	1.2216877	0.20918935	0.46439263	1.2807275	0.022303648	0.61494673	0.9302361	-0.23752692	0.31029903	0.99380541	0.25267403	0.86281056	0.93514052	-0.18077073	0.27804786	0.77158964	0.33106685
